<svg xmlns="http://www.w3.org/2000/svg" xmlns:xlink="http://www.w3.org/1999/xlink" width="500" zoomAndPan="magnify" viewBox="0 0 375 374.999991" height="500" preserveAspectRatio="xMidYMid meet" version="1.0"><defs><clipPath id="8efa5ae242"><path d="M 14.695312 15.40625 L 360.445312 15.40625 L 360.445312 359.65625 L 14.695312 359.65625 Z M 14.695312 15.40625 " clip-rule="nonzero"/></clipPath></defs><g clip-path="url(#8efa5ae242)"><path fill="#4e4e4e" d="M 360.398438 112.445312 C 360.398438 112.15625 360.371094 111.867188 360.316406 111.578125 C 360.261719 111.292969 360.175781 111.015625 360.066406 110.746094 C 359.957031 110.476562 359.820312 110.21875 359.65625 109.976562 C 359.496094 109.730469 359.3125 109.507812 359.105469 109.300781 C 358.898438 109.09375 358.675781 108.910156 358.433594 108.746094 C 358.191406 108.585938 357.933594 108.449219 357.664062 108.335938 C 357.394531 108.226562 357.117188 108.140625 356.828125 108.085938 C 356.542969 108.03125 356.253906 108 355.960938 108.003906 L 266.140625 108.003906 L 266.140625 19.851562 L 266.128906 19.851562 C 266.132812 19.558594 266.105469 19.269531 266.050781 18.980469 C 265.996094 18.695312 265.914062 18.417969 265.800781 18.144531 C 265.691406 17.875 265.554688 17.621094 265.394531 17.375 C 265.234375 17.132812 265.050781 16.90625 264.84375 16.699219 C 264.636719 16.496094 264.410156 16.308594 264.167969 16.148438 C 263.925781 15.984375 263.667969 15.847656 263.398438 15.738281 C 263.128906 15.625 262.851562 15.542969 262.566406 15.488281 C 262.277344 15.429688 261.988281 15.402344 261.695312 15.40625 L 164.582031 15.40625 C 163.355469 15.40625 162.308594 15.839844 161.441406 16.707031 L 112.136719 65.917969 C 111.710938 66.21875 111.347656 66.578125 111.046875 67.003906 L 16.792969 161.082031 C 16.15625 161.488281 15.65625 162.023438 15.292969 162.683594 C 14.929688 163.347656 14.746094 164.054688 14.746094 164.8125 L 14.746094 259.902344 C 14.746094 260.195312 14.773438 260.484375 14.832031 260.769531 C 14.886719 261.054688 14.972656 261.332031 15.082031 261.601562 C 15.195312 261.871094 15.332031 262.128906 15.496094 262.371094 C 15.65625 262.613281 15.839844 262.839844 16.046875 263.042969 C 16.253906 263.25 16.476562 263.433594 16.722656 263.597656 C 16.964844 263.757812 17.21875 263.894531 17.488281 264.007812 C 17.757812 264.121094 18.035156 264.203125 18.324219 264.261719 C 18.609375 264.316406 18.898438 264.347656 19.191406 264.34375 L 110.234375 264.34375 L 110.234375 355.214844 C 110.234375 355.507812 110.261719 355.792969 110.320312 356.082031 C 110.375 356.367188 110.460938 356.644531 110.570312 356.914062 C 110.683594 357.183594 110.820312 357.441406 110.980469 357.683594 C 111.144531 357.925781 111.328125 358.148438 111.535156 358.355469 C 111.742188 358.5625 111.964844 358.746094 112.207031 358.910156 C 112.449219 359.070312 112.707031 359.207031 112.976562 359.320312 C 113.246094 359.429688 113.523438 359.515625 113.808594 359.574219 C 114.097656 359.628906 114.386719 359.660156 114.675781 359.660156 L 210.179688 359.660156 C 211.394531 359.660156 212.429688 359.234375 213.292969 358.378906 L 213.316406 358.359375 L 213.324219 358.359375 L 359.070312 215.03125 C 359.953125 214.160156 360.398438 213.105469 360.398438 211.863281 Z M 360.398438 112.445312 " fill-opacity="1" fill-rule="nonzero"/></g><path fill="#35ff45" d="M 119.121094 74 L 205.734375 74 L 205.734375 160.375 L 119.121094 160.375 Z M 119.121094 74 " fill-opacity="1" fill-rule="nonzero"/><path fill="#35ff45" d="M 119.121094 264.34375 L 205.734375 264.34375 L 205.734375 350.765625 L 119.121094 350.765625 Z M 119.121094 264.34375 " fill-opacity="1" fill-rule="nonzero"/><path fill="#4588ff" d="M 110.234375 160.371094 L 30.085938 160.371094 L 110.234375 80.375 Z M 110.234375 160.371094 " fill-opacity="1" fill-rule="nonzero"/><path fill="#4588ff" d="M 257.25 110.628906 L 214.625 153.960938 L 214.625 72.539062 L 257.25 30.480469 Z M 257.25 110.628906 " fill-opacity="1" fill-rule="nonzero"/><path fill="#4588ff" d="M 296.242188 264.34375 L 214.625 344.609375 L 214.625 264.34375 Z M 296.242188 264.34375 " fill-opacity="1" fill-rule="nonzero"/><path fill="#4588ff" d="M 303.925781 160.371094 L 220.785156 160.371094 L 263.558594 116.890625 L 345.546875 116.890625 Z M 303.925781 160.371094 " fill-opacity="1" fill-rule="nonzero"/><path fill="#4588ff" d="M 166.417969 24.292969 L 250.867188 24.292969 L 209.496094 65.113281 L 125.523438 65.113281 Z M 166.417969 24.292969 " fill-opacity="1" fill-rule="nonzero"/><path fill="#4588ff" d="M 310.265625 250.550781 L 310.265625 166.601562 L 351.507812 123.515625 L 351.507812 209.992188 Z M 310.265625 250.550781 " fill-opacity="1" fill-rule="nonzero"/><path fill="#fcfcfc" d="M 119.121094 169.261719 L 205.734375 169.261719 L 205.734375 255.457031 L 119.121094 255.457031 Z M 119.121094 169.261719 " fill-opacity="1" fill-rule="nonzero"/><path fill="#35ff45" d="M 214.625 169.261719 L 301.222656 169.261719 L 301.222656 255.457031 L 214.625 255.457031 Z M 214.625 169.261719 " fill-opacity="1" fill-rule="nonzero"/><path fill="#35ff45" d="M 23.632812 169.261719 L 110.234375 169.261719 L 110.234375 255.457031 L 23.632812 255.457031 Z M 23.632812 169.261719 " fill-opacity="1" fill-rule="nonzero"/></svg>